<svg version="1.1" id="Camada_1" xmlns="http://www.w3.org/2000/svg" xmlns:xlink="http://www.w3.org/1999/xlink" x="0px" y="0px"
	 viewBox="0 0 1021.7 360.4" style="enable-background:new 0 0 1021.7 360.4;" xml:space="preserve">
<style type="text/css">
	.st0{fill:#E45660;}
</style>
<g>
	<path class="st0" d="M302.7,243.6C284.4,197.6,222,73.2,208.9,53c-13.2-20.4-29.5-24.6-40.8-24.6c-30.7,0-46.2,30.2-47.5,32.9
		c-3.9,7.6-80.5,156.4-88.9,183.7c-9.1,29.6,3.3,52.7,4.4,54.7c1.3,2.3,18.8,32.4,56.7,32.4c1.5,0,3.1,0,4.7-0.2
		c29.8-1.9,57.2-28,70.1-42.4c24.8,31.8,51.2,39.9,69.6,40.8c21.6,1.1,37.1-7.1,38.5-7.9c0.9-0.5,12.3-7,21.2-19.5
		C305.5,290.9,313.4,270.8,302.7,243.6z M168.4,261.1c-13.3-17.1-34.2-48.5-34.2-70.2c0-33,31-33.3,32.3-33.3c9.9,0,33,3.6,33,36.9
		C199.6,220.6,179.3,248.2,168.4,261.1z M282.6,292c-6.6,9.6-15.5,14.6-15.7,14.7c-1.9,1.1-46,24.4-87.2-31.1
		c11.5-13.1,37.9-46.8,37.9-81.1c0-40.6-27.5-54.9-51-54.9c-4,0-18,0.7-30.8,9.9c-8.9,6.4-19.6,18.8-19.6,41.5
		c0,30.5,28.5,69.3,40.2,84c-10,11.5-35.1,37.4-60.1,39c-30.2,1.9-44-22-44.5-23c-0.1-0.1,0-0.1-0.1-0.2c-0.4-0.7-9.9-17.9-2.9-40.5
		c6.4-20.8,60.2-127.4,87.7-180.9c0-0.1,0.1-0.2,0.1-0.2c0.1-0.2,11.1-22.8,31.4-22.8c9.9,0,18.6,5.5,25.7,16.5
		c12.3,18.9,74.4,142.8,92.1,187.4C292.1,265.8,291,279.9,282.6,292z"/>
	<path class="st0" d="M458,136.8L458,136.8c-0.1,0-5.6,0.3-5.7,5.6v3.2c0,0-5.9-11.8-28.7-11.8s-58.2,16.5-58.2,59.6
		c0,43.1,38.5,59.4,56.8,59.4s23.8-5.5,30.2-12.2v4c0.1,5.2,5.6,5.5,5.6,5.5h23.5V136.8H458z M426.6,225.8
		c-16.8,0-32.2-12.5-32.2-33.8s20.2-31.5,33.5-31.5s24.4,11.8,24.4,11.8v42.2C452.3,214.5,443.4,225.8,426.6,225.8z"/>
	<rect x="499.9" y="136.8" class="st0" width="28.2" height="113.3"/>
	<path class="st0" d="M574.7,146.3v-3.9c-0.1-5.2-5.6-5.5-5.6-5.5l-0.1,0h-23.5v113.3h23.5c0,0,5.6-0.3,5.6-5.5v-73.8
		c0,0,10.7-15.2,38.9-9V135C613.6,135,588,128.5,574.7,146.3z"/>
	<path class="st0" d="M683.6,133.8c-17.2,0-29,12.4-29,12.4V83h-29.1v167H649c0,0,5.6-0.3,5.6-5.5v-4c0,0,12,12.2,29,12.2
		s58.5-12.8,58.5-58.2C742.1,149.1,700.9,133.8,683.6,133.8z M678.9,226c-15,0-24.2-11.5-24.2-11.5v-42.2c0,0,11-11.5,25.5-11.5
		s32.5,11,32.5,32.6C712.6,215.1,693.9,226,678.9,226z"/>
	<path class="st0" d="M929.6,133.8c-17.2,0-29,12.4-29,12.4V83h-29.1v167H895c0,0,5.6-0.3,5.6-5.5v-4c0,0,12,12.2,29,12.2
		s58.5-12.8,58.5-58.2C988.1,149.1,946.9,133.8,929.6,133.8z M924.9,226c-15,0-24.2-11.5-24.2-11.5v-42.2c0,0,11-11.5,25.5-11.5
		s32.5,11,32.5,32.6C958.6,215.1,939.9,226,924.9,226z"/>
	<path class="st0" d="M856.4,174.8c0-25.5-22.5-40.9-44.8-40.9s-30.8,12.7-30.8,12.7v-4.2c-0.1-5.2-5.6-5.5-5.6-5.5l-0.1,0H754
		v113.3h29.1v-79.2c3.4-4.3,10.8-11.2,23.9-11.2c19.1,0,19.9,19.9,19.9,19.9v70.5h29.5C856.4,234.8,856.4,195.1,856.4,174.8z"/>
	<circle class="st0" cx="514" cy="102.3" r="19.3"/>
</g>
</svg>
